<?xml version="1.0" encoding="utf-8"?>
<!-- Generator: Adobe Illustrator 26.0.3, SVG Export Plug-In . SVG Version: 6.00 Build 0)  -->
<svg version="1.1" id="Layer_1" xmlns="http://www.w3.org/2000/svg" xmlns:xlink="http://www.w3.org/1999/xlink" x="0px" y="0px"
	 viewBox="0 0 192.68 228.75" style="enable-background:new 0 0 192.68 228.75;" xml:space="preserve">
<style type="text/css">
	.st0{fill:#3ECC5F;}
	.st1{fill:#44D860;}
	.st2{fill:#0061FC;stroke:#000000;stroke-miterlimit:10;}
	.st3{fill:#FF00DB;stroke:#000000;stroke-miterlimit:10;}
	.st4{fill:#00FF00;stroke:#000000;stroke-miterlimit:10;}
	.st5{fill:#FFCE00;stroke:#000000;stroke-miterlimit:10;}
	.st6{fill:#FF3A2E;}
</style>
<g>
	<path class="st0" d="M0,220.81c0.43,0.02,0.87,0.03,1.3,0.03h118.15l3.28,5.93c1.46,2.64,5.11,2.64,6.56,0l3.44-24.18l3.12,24.18
		c1.46,2.64,5.11,2.64,6.56,0l3.28-5.93l3.28,5.93c1.46,2.64,5.11,2.64,6.56,0l3.28-5.93c0.03,0,0.06,0,0.09,0l5.44,5.67
		c2.06,2.15,5.58,1.17,6.34-1.77l1.8-6.99l6.82,1.91c2.82,0.79,5.4-1.9,4.64-4.84l-35.49-16.26l40.36,7.28
		c2.82-0.79,3.76-4.46,1.7-6.62c0,0-27.23-9.62-27.23-9.65l27.48,0.47c2.53-1.52,2.53-5.33,0-6.85l-5.69-3.42v-13.7l5.69-3.42
		c2.53-1.52,2.53-5.33,0-6.85L85.52,130.06l24.38,1.19c84.6,19.1,83.41,12.36,80.88,10.84v-6.85c2.53-1.52,2.53-5.33,0-6.85
		l-13.18-2.38v-13.7l13.18-4.47c2.53-1.52,2.53-5.33,0-6.85l-5.69-3.42l5.69-3.42c2.53-1.52,2.53-5.33,0-6.85l-25.91-2.92
		l25.91-3.93c2.53-1.52,2.53-5.33,0-6.85v-6.85c2.53-1.52,2.53-5.33,0-6.85l-24.33,6.11l24.33-12.96c2.53-1.52,2.53-5.33,0-6.85
		l-15.12-4.07l15.12-2.77c2.53-1.52,2.53-5.33,0-6.85l-13.99-17.8c0-15.13-3.45-13.02-17.95-13.02L0,0"/>
	<path class="st0" d="M27.56,1.7"/>
	<line class="st0" x1="106.33" y1="1.7" x2="53.82" y2="1.7"/>
	<path class="st1" d="M53.82,1.7"/>
</g>
<g>
	<path class="st2" d="M89.97,105.05l-1.81-17.47c-3.84,0.55-7.58,1.04-11.2,1.48l-10.71,1.07c-3.52,0.27-7.03,0.49-10.55,0.66
		c-3.52,0.16-7.08,0.3-10.71,0.41V65.67h32.46V52.59h6.1v-3.32h-6.1V35.99h10.09v-3.32H77.45v-16.6h5.05V7.5H28.78v8.57h-5.05v8.73
		h32.63v7.87h10.09v3.32H56.36v12.54H23.9v4.06h-0.16v53.12h6.47v3.29h10.71c4.72,0,9.37-0.06,13.92-0.17
		c4.56-0.11,9.09-0.3,13.59-0.58c4.5-0.27,9.06-0.66,13.68-1.15c3.32-0.35,6.69-0.81,10.11-1.39h-6.31L89.97,105.05z"/>
	<path class="st3" d="M169.16,16.07h-6.31v-3.32h6.31V4.7h-21.59v8.05h-6.31v3.32h6.31v25.37h-31.64V26.03h-11.35v-3.32h11.35V4.7
		H94.35v18.01H83v3.32h11.35v23.24h10.09v3.32H94.35v3.32h3.78v3.32h-3.78v19.92H83v3.32h11.35v19.92h3.78v3.32h-3.78v21.62h74.81
		v-21.62h3.78v-3.32h-3.78V59.23h3.78v-3.32h-3.78v-3.32h10.09v-3.32h-10.09V16.07z M151.36,59.23h-3.78v32.8h-31.64v-9.56h-11.35
		v-3.32h11.35V59.23h3.78v-0.82h31.64V59.23z"/>
	<path class="st4" d="M95.56,153.8l-0.93-5.46l-1.3-5.14l-1.63-4.8l-0.27-0.62h3.78l-1.45-3.32h-3.78l-0.21-0.49l-2.23-4.06
		l-1.44-2.09h-1.26l-1.09-1.59l-1.47-1.73h1.26l-1.34-1.57l-3.05-2.9l-2.86-2.17h1.26c-1.26-0.91-2.59-1.71-3.98-2.43l-2.02-0.89
		H70.3c-4.3-1.95-8.94-2.9-13.88-2.9c-4.95,0-9.58,0.95-13.88,2.9h1.26l-2.02,0.89c-1.38,0.72-2.72,1.52-3.98,2.43h-1.26l-2.86,2.17
		l-3.05,2.9l-1.34,1.57h-1.26l-1.47,1.73l-1.09,1.59h1.26l-1.44,2.09l-2.23,4.06l-1.66,3.81h-3.78l-0.27,0.62l-1.63,4.8l-1.3,5.14
		l-0.93,5.46l-0.37,3.89h10.09l-0.18,1.89l-0.04,1.43H12.9l-0.14,4.67l0.16,5.29H0.31l0.02,0.82l0.24,2.5h12.61l0.32,3.3l0.93,5.49
		l1.3,5.18l1.63,4.84l1.92,4.43h3.78l0.02,0.03l2.23,4.1l2.53,3.73l2.8,3.34l2.17,2.08H42.9l0.88,0.84l3.25,2.48H36.93
		c1.15,0.79,2.35,1.5,3.59,2.14l2.67,1.18c4.12,1.75,8.53,2.61,13.23,2.61c4.69,0,9.11-0.85,13.23-2.61l2.67-1.18
		c1.24-0.64,2.44-1.35,3.59-2.14H86l3.25-2.48l0.88-0.84H80.04l2.17-2.08l2.8-3.34l2.53-3.73l2.23-4.1l1.93-4.47l1.63-4.84l1.3-5.18
		l0.93-5.49l0.32-3.3h-6.31l0.24-2.5l0.02-0.82h6.31l0.16-5.29l-0.19-6.1L95.56,153.8z M75.14,170.98h-6.31l-0.12,2.64l-0.08,0.68
		h6.31l-0.35,2.93l-0.61,3.37l-0.77,3.12l-0.9,2.85l-1.03,2.59l-1.17,2.32c-0.57,1-1.18,1.92-1.85,2.74l0,0.01l-0.87,1.09
		c-0.51,0.5-1.03,1.01-1.55,1.51l-1.67,1.25c-2.31,1.48-4.89,2.22-7.74,2.22c-2.86,0-5.44-0.74-7.74-2.22l-0.71-0.53H48l-0.96-0.72
		c-0.52-0.5-1.03-1.01-1.55-1.51l-0.87-1.09c-0.67-0.82-1.28-1.74-1.85-2.74l-1.17-2.32l-1.03-2.59l-0.9-2.85l-0.77-3.12l-0.61-3.37
		l-0.35-2.93H25.33l-0.08-0.68l-0.12-2.64h12.61l-0.23-5.29l0.21-4.67H47.8l0.14-3.24l0.01-0.08H37.87l0.43-3.5l0.61-3.34
		c0.24-1.08,0.49-2.12,0.78-3.11l0-0.01l0.89-2.79l1.03-2.57l1.17-2.31c0.47-0.82,0.96-1.59,1.49-2.29h-0.03l1.23-1.54
		c0.51-0.5,1.03-1.01,1.55-1.51l1.67-1.25c2.31-1.48,4.89-2.22,7.74-2.22c2.86,0,5.44,0.74,7.74,2.22l1.32,0.98h3.78l0.35,0.26
		c0.52,0.5,1.03,1.01,1.55,1.51l1.23,1.54h-3.78c0.53,0.7,1.02,1.46,1.49,2.29l1.17,2.31l1.03,2.57l0.89,2.79
		c0.28,1,0.54,2.04,0.78,3.12l0.61,3.34l0.44,3.58l0.35,7.91L75.14,170.98z"/>
	<path class="st5" d="M109.97,205.02v1.58h8.69c5.19,0,9.94-0.04,14.23-0.11c4.29-0.08,8.3-0.21,12.03-0.4
		c3.73-0.19,7.28-0.49,10.67-0.9l1.26-0.17h1.73c2.98-0.37,5.98-0.83,9.02-1.35l-0.13-0.92h-1.73l-1.45-10.6
		c-3.01,0.53-5.97,0.96-8.86,1.3l-9.09,0.79c-3.16,0.19-6.49,0.32-9.99,0.4c-3.5,0.08-7.36,0.15-11.57,0.23v-5.76h2.59v-2.27h-2.59
		v-2.24h31.84v-4.59h-6.05v-2.27h6.05v-4.65h-31.84v-9.82h33.99v-3.72h3.46v-2.28h-3.46v-5.86h-48.78v5.86h3.46v2.28h-3.46v18.2
		h-6.05v2.27h6.05v6.83h2.59v2.27h-2.59v13.65h1.73v2.28H109.97z"/>
</g>
<circle class="st6" cx="57.97" cy="163.64" r="11.87"/>
<circle cx="57.97" cy="163.64" r="3.56"/>
</svg>
